# AST/ASF file generated using VICON BodyLanguage
# -----------------------------------------------
:version 1.10
:name VICON
:units
  mass 1.0
  length 0.45
  angle deg
:documentation
   .ast/.asf automatically generated from VICON data using
   VICON BodyBuilder and BodyLanguage model FoxedUp or BRILLIANT.MOD
:root
   order TX TY TZ RX RY RZ
   axis XYZ
   position 0 0 0  
   orientation 0 0 0 
:bonedata
  begin
     id 1 
     name lhipjoint
     direction 0.570549 -0.739093 0.358072 
     length 2.41801 
     axis 0 0 0  XYZ
  end
  begin
     id 2 
     name lfemur
     direction 0.34202 -0.939693 0  
     length 7.44434  
     axis 0 0 20  XYZ
    dof rx ry rz
    limits (-160.0 20.0)
           (-70.0 70.0)
           (-60.0 70.0)
  end
  begin
     id 3 
     name ltibia
     direction 0.34202 -0.939693 0   
     length 7.60047   
     axis 0 0 20   XYZ
    dof rx
    limits (-10.0 170.0)
  end
  begin
     id 4 
     name lfoot
     direction 0.0909041 -0.249757 0.964032   
     length 2.03437   
     axis -90 7.62852e-016 20   XYZ
    dof rx rz
    limits (-45.0 90.0)
           (-70.0 20.0)
  end
  begin
     id 5 
     name ltoes
     direction 1.53547e-011 -4.2174e-011 1   
     length 1.02054   
     axis -90 7.62852e-016 20   XYZ
    dof rx
    limits (-90.0 20.0)
  end
  begin
     id 6 
     name rhipjoint
     direction -0.558096 -0.746754 0.361784   
     length 2.3932  
     axis 0 0 0  XYZ 
  end
  begin
     id 7 
     name rfemur
     direction -0.34202 -0.939693 0   
     length 7.3886   
     axis 0 0 -20   XYZ
    dof rx ry rz
    limits (-160.0 20.0)
           (-70.0 70.0)
           (-70.0 60.0)
  end
  begin
     id 8 
     name rtibia
     direction -0.34202 -0.939693 0   
     length 7.4839   
     axis 0 0 -20   XYZ
    dof rx
    limits (-10.0 170.0)
 end
 begin
     id 9 
     name rfoot
     direction -0.114619 -0.314914 0.942174   
     length 2.25127  
     axis -90 -7.62852e-016 -20   XYZ
    dof rx rz
    limits (-45.0 90.0)
           (-20.0 70.0)
  end
  begin
     id 10 
     name rtoes
     direction -1.53518e-011 -4.21881e-011 1   
     length 1.11821   
     axis -90 -7.62852e-016 -20   XYZ
    dof rx
    limits (-90.0 20.0)
  end
  begin
     id 11 
     name lowerback
     direction -0.00902269 0.996426 -0.0839821   
     length 2.25052   
     axis 0 0 0   XYZ
    dof rx ry rz
    limits (-20.0 45.0)
           (-30.0 30.0)
           (-30.0 30.0)
  end
  begin
     id 12 
     name upperback
     direction 0.0370973 0.999169 -0.0168941   
     length 2.24876   
     axis 0 0 0   XYZ
    dof rx ry rz
    limits (-20.0 45.0)
           (-30.0 30.0)
           (-30.0 30.0)
  end
  begin
     id 13 
     name thorax
     direction 0.0402726 0.998931 0.0227027   
     length 2.26408   
     axis 0 0 0   XYZ
    dof rx ry rz
    limits (-20.0 45.0)
           (-30.0 30.0)
           (-30.0 30.0)
  end
  begin
     id 14 
     name lowerneck
     direction -0.0733697 0.98508 0.155675   
     length 1.58204   
     axis 0 0 0   XYZ
    dof rx ry rz
    limits (-20.0 45.0)
           (-30.0 30.0)
           (-30.0 30.0)
  end
  begin
     id 15 
     name upperneck
     direction 0.0426554 0.993501 -0.105526   
     length 1.61222   
     axis 0 0 0   XYZ
    dof rx ry rz
    limits (-20.0 45.0)
           (-30.0 30.0)
           (-30.0 30.0)
  end
  begin
     id 16
     name head
     direction 0.020792 0.998384 -0.0528868  
     length 1.61527  
     axis 0 0 0   XYZ
    dof rx ry rz
    limits (-20.0 45.0)
           (-30.0 30.0)
           (-30.0 30.0)
  end
  begin
     id 17 
     name lclavicle
     direction 0.967109 0.155462 -0.201325  
     length 3.59357  
     axis 0 0 0   XYZ
    dof ry rz
    limits (-20.0 10.0)
           (0.0 20.0)
  end
  begin
     id 18 
     name lhumerus
     direction 1 -4.48968e-011 2.38195e-027   
     length 5.38154   
     axis 180 -30 -90   XYZ
    dof rx ry rz
    limits (-60.0 90.0)
           (-90.0 90.0)
           (-90.0 90.0)
  end
  begin
     id 19
     name lradius
     direction 1 -4.48961e-011 4.85371e-027   
     length 3.33312   
     axis 180 -30 -90   XYZ
    dof rx
    limits (-10.0 170.0)
  end
  begin
     id 20
     name lwrist
     direction 1 -4.48961e-011 4.76515e-027   
     length 1.66656   
     axis -3.27502e-015 90 90   XYZ
    dof ry
    limits (-180.0 0.0)
 end
  begin
     id 21 
     name lhand
     direction 1 -4.48951e-011 9.53074e-027   
     length 0.710789   
     axis -6.08098e-015 90 90   XYZ
    dof rx rz
    limits (-90.0 90.0)
           (-45.0 45.0)
  end
  begin
     id 22 
     name lfingers
     direction 1 -4.48953e-011 1.90613e-026   
     length 0.573057   
     axis -1.21619e-014 90 90   XYZ
    dof rx
    limits (0.0 90.0)
  end
  begin
     id 23
     name lthumb
     direction 0.707107 -6.34973e-011 0.707107   
     length 0.822798   
     axis -90 45 -9.86923e-015   XYZ
    dof rx rz
    limits (-45.0 45.0)
           (-45.0 45.0)
  end
  begin
     id 24 
     name rclavicle
     direction -0.9585 0.265289 -0.104398   
     length 3.42039  
     axis 0 0 0   XYZ 
    dof ry rz
    limits (-10.0 20.0)
           (-20.0 0.0)
  end
  begin
     id 25 
     name rhumerus
     direction -1 -4.48977e-011 2.21478e-027  
     length 5.16954   
     axis 180 30 90   XYZ
    dof rx ry rz
    limits (-90.0 60.0)
           (-90.0 90.0)
           (-90.0 90.0)
  end
  begin
     id 26 
     name rradius
     direction -1 -4.48967e-011 5.63677e-027   
     length 3.38287   
     axis 180 30 90   XYZ
    dof rx
    limits (-10.0 170.0)
  end
  begin
     id 27 
     name rwrist
     direction -1 -4.48967e-011 4.76501e-027   
     length 1.69144   
     axis -3.27502e-015 -90 -90   XYZ
    dof ry
    limits (-180.0 0.0)
  end
  begin
     id 28
     name rhand
     direction -1 -4.48902e-011 9.53292e-027   
     length 0.817967   
     axis -6.08098e-015 -90 -90   XYZ
    dof rx rz
    limits (-90.0 90.0)
           (-45.0 45.0)
  end
  begin
     id 29
     name rfingers
     direction -1 -4.49012e-011 1.90561e-026   
     length 0.659466   
     axis -1.21619e-014 -90 -90   XYZ
    dof rx
    limits (0.0 90.0)
  end
  begin
     id 30
     name rthumb
     direction -0.707107 -6.34944e-011 0.707107   
     length 0.946865   
     axis -90 -45 9.86923e-015   XYZ
    dof rx rz
    limits (-45.0 45.0)
           (-45.0 45.0)
  end
:hierarchy
  begin
    root lhipjoint rhipjoint lowerback
    lhipjoint lfemur
    lfemur ltibia
    ltibia lfoot
    lfoot ltoes
    rhipjoint rfemur
    rfemur rtibia
    rtibia rfoot
    rfoot rtoes
    lowerback upperback
    upperback thorax
    thorax lowerneck lclavicle rclavicle
    lowerneck upperneck
    upperneck head
    lclavicle lhumerus
    lhumerus lradius
    lradius lwrist
    lwrist lhand lthumb
    lhand lfingers
    rclavicle rhumerus
    rhumerus rradius
    rradius rwrist
    rwrist rhand rthumb
    rhand rfingers
  end

#!OML:ASF F:\twosubjects\two\wednesday\Session 1\Justin1.ASF
:FULLY-SPECIFIED
:DEGREES
1125
root 8.69597 16.7395 -15.9591 7.16309 9.98947 -4.88803
lowerback 19.86 -2.65824 -4.48211
upperback 2.22724 -3.62226 9.0928
thorax -7.77331 -1.46855 13.8539
lowerneck -23.8823 -4.34725 -8.88546
upperneck 11.2328 -4.30893 7.48753
head 7.68143 -1.70862 3.36783
rclavicle 7.03698e-014 -2.38542e-014
rhumerus -34.9522 -2.27753 -72.4784
rradius 125.462
rwrist -20.2233
rhand -20.3025 47.9443
rfingers 7.12502
rthumb 6.0478 18.0507
lclavicle 7.03698e-014 -2.38542e-014
lhumerus -6.99656 7.42135 72.6878
lradius 100.351
lwrist 12.8573
lhand -13.9331 22.5538
lfingers 7.12502
lthumb 12.1936 52.1784
rfemur -30.5382 -9.64256 23.6733
rtibia 45.8941
rfoot -19.4023 -12.4903
rtoes -5.17662
lfemur -35.901 3.74945 -8.76639
ltibia 46.8454
lfoot -18.8562 -10.4587
ltoes -16.4251
1126
root 8.69445 16.8099 -15.9173 6.78757 10.2783 -4.93777
lowerback 19.6174 -2.79205 -4.65328
upperback 2.20764 -3.82749 9.22816
thorax -7.58643 -1.57576 14.1474
lowerneck -23.7491 -4.29847 -9.66867
upperneck 11.1957 -4.13408 8.23697
head 7.66974 -1.58918 3.77565
rclavicle 3.93594e-014 -5.08889e-014
rhumerus -35.4826 -2.25401 -72.2427
rradius 125.725
rwrist -20.1802
rhand -20.7585 48.7372
rfingers 7.12502
rthumb 5.60751 18.8314
lclavicle 3.93594e-014 -5.08889e-014
lhumerus -6.78783 6.88245 72.7632
lradius 99.9949
lwrist 12.7955
lhand -13.7752 22.8981
lfingers 7.12502
lthumb 12.3458 52.5135
rfemur -29.1764 -9.96256 23.6465
rtibia 44.5351
rfoot -19.138 -12.3229
rtoes -4.91823
lfemur -34.6876 3.06326 -8.58865
ltibia 45.5936
lfoot -18.4888 -10.1948
ltoes -15.8385
1127
root 8.6984 16.8737 -15.88 6.66477 10.3178 -4.87811
lowerback 19.3241 -2.83308 -4.76331
upperback 1.9769 -3.90002 9.22245
thorax -7.65738 -1.59452 14.2127
lowerneck -23.4606 -4.17909 -9.5955
upperneck 11.2706 -4.01286 8.15657
head 7.63345 -1.54237 3.75441
rclavicle -3.89618e-014 -2.38542e-014
rhumerus -36.1672 -2.34593 -71.9688
rradius 125.875
rwrist -20.1843
rhand -20.8818 49.1253
rfingers 7.12502
rthumb 5.48851 19.2164
lclavicle -3.89618e-014 -2.38542e-014
lhumerus -7.01292 6.01175 72.7757
lradius 99.796
lwrist 12.5395
lhand -13.5123 22.8611
lfingers 7.12502
lthumb 12.5993 52.4611
rfemur -28.1392 -10.2005 23.5391
rtibia 43.0985
rfoot -18.5865 -12.2155
rtoes -5.55133
lfemur -33.7506 2.50758 -8.54272
ltibia 44.5071
lfoot -18.3765 -9.91817
ltoes -14.9451
1128
root 8.70616 16.934 -15.8462 6.65965 10.1353 -4.77241
lowerback 18.9856 -2.75868 -4.7526
upperback 1.66921 -3.79929 9.09985
thorax -7.85358 -1.52119 14.0225
lowerneck -22.836 -3.96552 -8.9689
upperneck 11.2012 -3.90792 7.77788
head 7.47829 -1.51355 3.5386
rclavicle 9.54166e-015 -3.18055e-015
rhumerus -36.7702 -2.7108 -71.5896
rradius 125.929
rwrist -20.3589
rhand -20.7604 49.0367
rfingers 7.12502
rthumb 5.60564 19.1309
lclavicle 9.54166e-015 -3.18055e-015
lhumerus -7.26364 4.95453 72.9767
lradius 99.6685
lwrist 12.0906
lhand -13.2619 22.6871
lfingers 7.12502
lthumb 12.8407 52.2722
rfemur -27.2324 -10.2527 23.392
rtibia 41.6123
rfoot -17.9967 -12.1674
rtoes -6.44122
lfemur -32.9471 2.02289 -8.55351
ltibia 43.5695
lfoot -18.4014 -9.42697
ltoes -14.5025
1129
root 8.70846 16.9877 -15.8189 6.60087 9.70995 -5.52846
lowerback 18.398 -2.63854 -4.05239
upperback 1.52587 -3.47855 9.21593
thorax -7.81477 -1.38356 13.6031
lowerneck -20.8364 -3.3153 -4.67908
upperneck 9.42118 -3.8088 4.43102
head 6.40401 -1.63214 1.75344
rclavicle -1.19271e-014 2.70347e-014
rhumerus -36.9033 -3.18691 -71.0396
rradius 125.854
rwrist -20.7644
rhand -20.6922 49.4754
rfingers 7.12502
rthumb 5.67154 19.5713
lclavicle -1.19271e-014 2.70347e-014
lhumerus -7.29046 4.15923 73.3787
lradius 99.6167
lwrist 11.5076
lhand -13.1366 22.7235
lfingers 7.12502
lthumb 12.9615 52.3009
rfemur -26.4237 -9.66666 24.2018
rtibia 40.1244
rfoot -17.4759 -12.2193
rtoes -6.2677
lfemur -32.3742 2.02437 -7.62324
ltibia 42.7432
lfoot -18.0005 -9.05809
ltoes -14.3894
